<?xml version="1.0" encoding="UTF-8" standalone="no"?> <svg width="64" height="64" viewBox="0 0 64 64" fill="none" xmlns="http://www.w3.org/2000/svg">
<path fill="yellow" d="M59.2 27.21L53.5 21.92V8.71001C53.5 8.31219 53.342 7.93066 53.0607 7.64935C52.7794 7.36805 52.3979 7.21001 52 7.21001H43.86C43.4622 7.21001 43.0807 7.36805 42.7994 7.64935C42.5181 7.93066 42.36 8.31219 42.36 8.71001V11.57L35.74 5.43001C34.7219 4.48896 33.3864 3.96631 32 3.96631C30.6136 3.96631 29.2782 4.48896 28.26 5.43001L4.80003 27.21C4.04412 27.9071 3.50042 28.8035 3.23152 29.7959C2.96261 30.7884 2.97943 31.8367 3.28003 32.82L11.56 60.43C11.6527 60.7397 11.843 61.0112 12.1024 61.204C12.3619 61.3968 12.6768 61.5007 13 61.5H51C51.3233 61.5007 51.6381 61.3968 51.8976 61.204C52.1571 61.0112 52.3474 60.7397 52.44 60.43L60.72 32.82C61.0206 31.8367 61.0375 30.7884 60.7685 29.7959C60.4996 28.8035 59.9559 27.9071 59.2 27.21V27.21ZM45.36 10.21H50.5V19.13L45.36 14.36V10.21ZM27.07 58.5V43.5H36.93V58.5H27.07ZM57.85 32L49.85 58.55H39.85V42C39.85 41.6022 39.692 41.2207 39.4107 40.9394C39.1294 40.658 38.7479 40.5 38.35 40.5H25.57C25.1722 40.5 24.7907 40.658 24.5094 40.9394C24.2281 41.2207 24.07 41.6022 24.07 42V58.5H14.07L6.15003 32C6.01547 31.5521 6.00976 31.0754 6.13356 30.6244C6.25736 30.1734 6.50566 29.7664 6.85003 29.45L30.3 7.63001C30.7623 7.20128 31.3695 6.96304 32 6.96304C32.6305 6.96304 33.2377 7.20128 33.7 7.63001L57.15 29.4C57.5037 29.7207 57.7577 30.1363 57.8818 30.5972C58.0059 31.0582 57.9949 31.5451 57.85 32V32Z" />
</svg>
