<?xml version="1.0" encoding="UTF-8" standalone="no"?> <svg width="24" height="24" viewBox="0 0 24 24" fill="none" xmlns="http://www.w3.org/2000/svg">
<path fill-rule="evenodd" clip-rule="evenodd" fill="yellow" d="M12.0001 3C7.02951 3 3.00008 7.02944 3.00008 12C3.00008 13.7263 3.48511 15.3362 4.32583 16.7044L4.59701 17.1457L2.90402 21.0961L6.85434 19.4031L7.29567 19.6742C8.66389 20.515 10.2738 21 12.0001 21C16.9706 21 21.0001 16.9706 21.0001 12C21.0001 7.02944 16.9706 3 12.0001 3ZM1.00008 12C1.00008 5.92487 5.92494 1 12.0001 1C18.0752 1 23.0001 5.92487 23.0001 12C23.0001 18.0751 18.0752 23 12.0001 23C10.0818 23 8.2759 22.5082 6.70417 21.6434L3.69186 22.9343C2.03242 23.6455 0.354534 21.9677 1.06573 20.3082L2.35672 17.2959C1.49191 15.7242 1.00008 13.9183 1.00008 12ZM7.00008 10C7.00008 9.44772 7.44779 9 8.00008 9H11.0001C11.5524 9 12.0001 9.44772 12.0001 10C12.0001 10.5523 11.5524 11 11.0001 11H8.00008C7.44779 11 7.00008 10.5523 7.00008 10ZM7.00008 14C7.00008 13.4477 7.44779 13 8.00008 13H16.0001C16.5524 13 17.0001 13.4477 17.0001 14C17.0001 14.5523 16.5524 15 16.0001 15H8.00008C7.44779 15 7.00008 14.5523 7.00008 14Z"/>
</svg>
