<?xml version="1.0" encoding="UTF-8" standalone="no"?> <svg id="Layer_1" data-name="Layer 1" xmlns="http://www.w3.org/2000/svg" width="48" height="48" viewBox="0 0 48 48"><title>Chess_2</title><path fill="yellow" d="M36.85,27.87l-3.54-8.32a6.26,6.26,0,0,0-4.71-4,3.52,3.52,0,0,0,1.73-4.16.46.46,0,0,0-.6-.31L19.49,14.9C12.86,17.29,11,23.13,11,31.23v4.11A1.62,1.62,0,0,0,12.66,37h12a1.63,1.63,0,0,0,1.45-2.35L24,30.48v0a6.45,6.45,0,0,1-5.28-3.52.39.39,0,0,1,.08-.47l.61-.61a.41.41,0,0,1,.66.12,4.84,4.84,0,0,0,4.42,2.9,4.66,4.66,0,0,0,2.37-.66l2.33,3.23a1.59,1.59,0,0,0,1.32.67h2.54a1.65,1.65,0,0,0,1.15-.47l2.29-2A1.65,1.65,0,0,0,36.85,27.87Zm-9.2-5.49a1.22,1.22,0,1,1,1.21-1.22A1.21,1.21,0,0,1,27.65,22.38Z"/></svg>